<svg width="86" height="86" viewBox="0 0 86 86" fill="none" xmlns="http://www.w3.org/2000/svg">
<path d="M33.3731 38.1868H52.6268C53.6906 38.1868 54.5522 37.3252 54.5522 36.2615V34.3361C54.5522 33.2724 53.6906 32.4108 52.6268 32.4108H33.3731C32.3093 32.4108 31.4477 33.2724 31.4477 34.3361V36.2615C31.4477 37.3252 32.3093 38.1868 33.3731 38.1868ZM31.4477 47.8136C31.4477 48.8774 32.3093 49.739 33.3731 49.739H52.6268C53.6906 49.739 54.5522 48.8774 54.5522 47.8136V45.8883C54.5522 44.8245 53.6906 43.9629 52.6268 43.9629H33.3731C32.3093 43.9629 31.4477 44.8245 31.4477 45.8883V47.8136ZM42.9999 62.3898C41.024 62.3898 39.0481 61.7809 37.361 60.5619L12.194 42.3817V68.0299C12.194 71.22 14.78 73.806 17.9701 73.806H68.0298C71.2199 73.806 73.8059 71.22 73.8059 68.0299V42.3817L48.6389 60.5619C46.9518 61.7797 44.9759 62.3898 42.9999 62.3898ZM71.5929 31.8031C70.528 30.9679 69.5183 30.1822 68.0298 29.0582V23.7466C68.0298 20.5565 65.4438 17.9705 62.2537 17.9705H52.9216C52.5558 17.7058 52.2153 17.4579 51.8338 17.1811C49.8109 15.7046 45.7917 12.1523 42.9999 12.1945C40.2081 12.1523 36.1901 15.7046 34.1661 17.1811C33.7846 17.4579 33.4441 17.7058 33.0783 17.9705H23.7462C20.5561 17.9705 17.9701 20.5565 17.9701 23.7466V29.0582C16.4815 30.1809 15.4719 30.9679 14.4069 31.8031C13.7176 32.3433 13.1602 33.0332 12.7768 33.8206C12.3934 34.608 12.1941 35.4723 12.194 36.3481V37.6297L23.7462 45.9749V23.7466H62.2537V45.9749L73.8059 37.6297V36.3481C73.8059 34.5744 72.99 32.8981 71.5929 31.8031Z" fill="#287149"/>
</svg>
