<svg width="113" height="113" viewBox="0 0 113 113" fill="none" xmlns="http://www.w3.org/2000/svg">
<path d="M100.641 3.53125H37.0781C34.7376 3.53388 32.4936 4.46483 30.8386 6.11985C29.1836 7.77488 28.2526 10.0188 28.25 12.3594V49.4375C27.7817 49.4375 27.3326 49.6235 27.0015 49.9546C26.6704 50.2858 26.4844 50.7349 26.4844 51.2031V55.7836C24.8619 56.2674 23.2939 56.9179 21.8055 57.7247L18.5651 54.4834C18.4011 54.3195 18.2065 54.1894 17.9923 54.1007C17.7781 54.0119 17.5485 53.9663 17.3166 53.9663C17.0847 53.9663 16.8551 54.0119 16.6409 54.1007C16.4267 54.1894 16.232 54.3195 16.0681 54.4834L8.57719 61.9734C8.41322 62.1374 8.28316 62.332 8.19442 62.5463C8.10569 62.7605 8.06001 62.9901 8.06001 63.222C8.06001 63.4538 8.10569 63.6834 8.19442 63.8977C8.28316 64.1119 8.41322 64.3065 8.57719 64.4705L11.8184 67.7117C11.0113 69.2001 10.3604 70.7681 9.87624 72.3906H5.29688C4.8286 72.3906 4.37951 72.5766 4.04839 72.9078C3.71727 73.2389 3.53125 73.688 3.53125 74.1562V84.75C3.53125 85.2183 3.71727 85.6674 4.04839 85.9985C4.37951 86.3296 4.8286 86.5156 5.29688 86.5156H9.87735C10.3615 88.1381 11.0124 89.7061 11.8195 91.1945L8.57719 94.4349C7.66943 95.3438 7.9729 96.3093 8.57719 96.9319L16.0672 104.423C16.2311 104.587 16.4258 104.717 16.64 104.806C16.8542 104.894 17.0838 104.94 17.3157 104.94C17.5476 104.94 17.7772 104.894 17.9914 104.806C18.2056 104.717 18.4003 104.587 18.5642 104.423L21.8055 101.182C23.2939 101.988 24.8619 102.639 26.4844 103.123V107.703C26.4844 108.171 26.6704 108.62 27.0015 108.952C27.3326 109.283 27.7817 109.469 28.25 109.469H38.8438C39.312 109.469 39.7611 109.283 40.0922 108.952C40.4234 108.62 40.6094 108.171 40.6094 107.703V103.123C42.2318 102.639 43.7998 101.988 45.2883 101.182L48.5295 104.423C48.6935 104.587 48.8881 104.717 49.1023 104.806C49.3166 104.894 49.5462 104.94 49.778 104.94C50.0099 104.94 50.2395 104.894 50.4537 104.806C50.668 104.717 50.8626 104.587 51.0266 104.423L58.5166 96.9328C59.1668 96.3561 59.3332 95.2526 58.6887 94.609L55.2753 91.1945C56.0821 89.7061 56.7326 88.1381 57.2164 86.5156H61.7969C62.2651 86.5156 62.7142 86.3296 63.0454 85.9985C63.3765 85.6674 63.5625 85.2183 63.5625 84.75V81.2188H74.3288V77.6875H70.625V69.6433C70.6237 68.4993 70.1687 67.4024 69.3597 66.5934C68.5507 65.7845 67.4539 65.3294 66.3098 65.3281C65.2867 65.3173 64.2953 65.6831 63.5245 66.3559C63.0614 66.8096 62.4448 67.0728 61.7969 67.0938C60.53 67.0938 59.3111 65.9856 58.6874 64.2688C59.406 62.6417 58.267 61.7236 58.267 61.7236C58.2939 58.8851 59.8988 56.5 61.7969 56.5C62.4446 56.5209 63.061 56.784 63.5241 57.2374C64.295 57.9105 65.2865 58.2765 66.3098 58.2656C67.4539 58.2643 68.5507 57.8093 69.3597 57.0003C70.1687 56.1913 70.6237 55.0945 70.625 53.9504V44.1406H80.4348C80.6426 44.1409 80.8419 44.2236 80.9888 44.3706C81.1358 44.5175 81.2185 44.7167 81.2188 44.9246C81.2264 45.0808 81.1796 45.2349 81.0863 45.3605C80.0536 46.4689 79.4713 47.9226 79.4531 49.4375C79.4531 53.3318 83.4134 56.5 88.2812 56.5C93.1491 56.5 97.1094 53.3318 97.1094 49.4375C97.0911 47.9227 96.5088 46.4691 95.4762 45.3607C95.3829 45.235 95.3361 45.0809 95.3438 44.9246C95.344 44.7167 95.4267 44.5175 95.5736 44.3705C95.7206 44.2235 95.9198 44.1409 96.1277 44.1406H105.938V72.3906C105.936 73.795 105.377 75.1413 104.384 76.1343C103.391 77.1274 102.045 77.6859 100.641 77.6875H91.3523V81.2188H100.641C102.981 81.2161 105.225 80.2852 106.88 78.6301C108.535 76.9751 109.466 74.7312 109.469 72.3906V12.3594C109.466 10.0188 108.535 7.77488 106.88 6.11985C105.225 4.46483 102.981 3.53388 100.641 3.53125ZM37.0781 7.0625H67.0938V15.1067C67.095 16.2508 67.5501 17.3476 68.3591 18.1566C69.168 18.9655 70.2649 19.4206 71.4089 19.4219C72.4321 19.4328 73.4235 19.0668 74.1942 18.3938C74.6574 17.9403 75.2739 17.6771 75.9219 17.6562C77.836 17.6562 79.4531 20.082 79.4531 22.9531C79.4531 25.8243 77.836 28.25 75.9219 28.25C75.274 28.2291 74.6576 27.9659 74.1944 27.5124C73.4236 26.8394 72.4322 26.4734 71.4089 26.4844C70.2649 26.4857 69.168 26.9407 68.3591 27.7497C67.5501 28.5587 67.095 29.6555 67.0938 30.7996V40.6094H57.2839C56.8518 40.6094 56.6179 40.4224 56.5137 40.168C56.4521 40.0415 56.4305 39.8992 56.4518 39.7602C56.4731 39.6211 56.5363 39.4918 56.6329 39.3895C57.1643 38.854 57.5826 38.2171 57.8631 37.5168C58.1436 36.8164 58.2805 36.0668 58.2656 35.3125C58.2656 31.4182 54.3053 28.25 49.4375 28.25C44.5697 28.25 40.6094 31.4182 40.6094 35.3125C40.6094 36.7811 41.2075 38.162 42.2426 39.3895C42.3287 39.4866 42.3897 39.6033 42.4201 39.7294C42.4505 39.8555 42.4494 39.9872 42.4169 40.1128C42.2927 40.4853 42.0236 40.6094 41.5915 40.6094H31.7812V12.3594C31.7829 10.9551 32.3415 9.60873 33.3345 8.61573C34.3275 7.62272 35.6738 7.06414 37.0781 7.0625ZM60.0312 82.9844H55.86C55.4624 82.9844 55.0764 83.1186 54.7646 83.3652C54.4528 83.6119 54.2333 83.9566 54.1418 84.3435C53.6222 86.5387 52.7524 88.6359 51.5657 90.5545C51.3568 90.8928 51.2681 91.2918 51.3141 91.6868C51.3601 92.0818 51.5382 92.4496 51.8193 92.7309L54.7712 95.6825L49.7772 100.677L46.8255 97.7247C46.5443 97.4435 46.1764 97.2655 45.7814 97.2195C45.3864 97.1735 44.9874 97.2621 44.6491 97.4711C42.7304 98.6583 40.6328 99.5285 38.4372 100.048C38.0502 100.14 37.7054 100.359 37.4587 100.671C37.212 100.983 37.0779 101.37 37.0781 101.767V105.938H30.0156V101.767C30.0156 101.37 29.8814 100.984 29.6348 100.672C29.3881 100.36 29.0434 100.141 28.6565 100.049C26.4612 99.5293 24.364 98.6591 22.4455 97.472C22.1072 97.263 21.7082 97.1743 21.3132 97.2204C20.9182 97.2664 20.5504 97.4444 20.2692 97.7256L17.3166 100.677L12.3225 95.6834L15.2744 92.7317C15.5556 92.4505 15.7336 92.0826 15.7796 91.6876C15.8257 91.2927 15.737 90.8937 15.528 90.5554C14.3409 88.6366 13.4707 86.5391 12.9509 84.3435C12.8594 83.9567 12.6401 83.6122 12.3285 83.3656C12.0169 83.1189 11.6312 82.9846 11.2338 82.9844H7.0625V75.9219H11.2338C11.6314 75.9219 12.0173 75.7877 12.3291 75.541C12.641 75.2944 12.8604 74.9497 12.952 74.5628C13.4716 72.3675 14.3414 70.2703 15.528 68.3518C15.737 68.0134 15.8257 67.6145 15.7796 67.2195C15.7336 66.8245 15.5556 66.4566 15.2744 66.1754L12.3225 63.2228L17.3166 58.2288L20.2683 61.1807C20.5495 61.4619 20.9174 61.6399 21.3124 61.6859C21.7073 61.7319 22.1063 61.6432 22.4446 61.4343C24.3634 60.2472 26.4609 59.377 28.6565 58.8571C29.0433 58.7656 29.3878 58.5463 29.6344 58.2347C29.8811 57.9231 30.0154 57.5374 30.0156 57.14V52.9688H37.0781V57.14C37.0781 57.5376 37.2123 57.9236 37.459 58.2354C37.7056 58.5472 38.0503 58.7667 38.4372 58.8582C40.6325 59.3778 42.7297 60.2476 44.6482 61.4343C44.9866 61.6432 45.3855 61.7319 45.7805 61.6859C46.1755 61.6399 46.5434 61.4619 46.8246 61.1807L49.7763 58.2288L54.7703 63.2228L51.8184 66.1745C51.5373 66.4557 51.3593 66.8236 51.3132 67.2186C51.2672 67.6136 51.3559 68.0126 51.5649 68.3509C52.752 70.2697 53.6222 72.3672 54.142 74.5628C54.2336 74.9498 54.4532 75.2946 54.7652 75.5413C55.0772 75.788 55.4633 75.9221 55.8611 75.9219H60.0312V82.9844ZM61.7969 70.625C63.2654 70.625 64.6342 70.0126 65.8739 68.9918C65.9879 68.8966 66.1278 68.8377 66.2755 68.8225C66.4232 68.8073 66.5721 68.8365 66.7032 68.9064C66.8342 68.9764 66.9413 69.0838 67.0109 69.215C67.0805 69.3462 67.1093 69.4952 67.0938 69.6429V77.6875H63.5625V74.1562C63.5625 73.688 63.3765 73.2389 63.0454 72.9078C62.7142 72.5766 62.2651 72.3906 61.7969 72.3906H57.2164C56.7326 70.7682 56.0821 69.2002 55.2753 67.7117L56.0478 66.9393C57.3546 69.2182 59.4874 70.625 61.7969 70.625ZM67.0938 53.9504C67.0938 54.6975 66.4133 55.0654 65.8737 54.6013C64.6567 53.5543 63.2654 52.9681 61.7969 52.9681C58.7876 52.9681 56.2131 55.334 55.1979 58.6552L51.0266 54.4839C50.8626 54.3199 50.668 54.1898 50.4537 54.1011C50.2395 54.0124 50.0099 53.9667 49.778 53.9667C49.5462 53.9667 49.3166 54.0124 49.1023 54.1011C48.8881 54.1898 48.6935 54.3199 48.5295 54.4839L45.2883 57.7247C43.7998 56.9179 42.2318 56.2674 40.6094 55.7836V51.2031C40.6094 50.7349 40.4234 50.2858 40.0922 49.9546C39.7611 49.6235 39.312 49.4375 38.8438 49.4375H31.7812V44.1406H41.5911C42.7351 44.1393 43.832 43.6843 44.6409 42.8753C45.4499 42.0663 45.905 40.9695 45.9062 39.8254C45.9171 38.8023 45.5513 37.811 44.8784 37.0402C44.4248 36.577 44.1615 35.9605 44.1406 35.3125C44.1406 33.3983 46.5664 31.7812 49.4375 31.7812C52.3086 31.7812 54.7344 33.3983 54.7344 35.3125C54.7135 35.9604 54.4503 36.5768 53.9968 37.0399C53.3237 37.8107 52.9578 38.8022 52.9688 39.8254C52.97 40.9695 53.4251 42.0663 54.2341 42.8753C55.043 43.6843 56.1399 44.1393 57.2839 44.1406H67.0938V53.9504ZM91.8125 44.9237C91.8017 45.9468 92.1675 46.9381 92.8403 47.709C93.2941 48.1723 93.5574 48.7892 93.5781 49.4375C93.5781 51.3517 91.1524 52.9688 88.2812 52.9688C85.4101 52.9688 82.9844 51.3517 82.9844 49.4375C83.0053 48.7895 83.2685 48.173 83.7222 47.7098C84.395 46.939 84.7609 45.9477 84.75 44.9246C84.7487 43.7805 84.2937 42.6837 83.4847 41.8747C82.6757 41.0657 81.5789 40.6107 80.4348 40.6094H70.625V30.7996C70.6244 30.671 70.6557 30.5443 70.7161 30.4309C70.7766 30.3174 70.8643 30.2208 70.9713 30.1496C71.689 29.6773 72.6164 30.7896 73.2154 31.1041C74.0498 31.5447 74.9783 31.7771 75.9219 31.7812C79.8162 31.7812 82.9844 27.821 82.9844 22.9531C82.9844 18.0853 79.8162 14.125 75.9219 14.125C74.407 14.1432 72.9533 14.7255 71.8448 15.7582C71.6634 15.8876 71.4383 15.9402 71.2182 15.9048C70.7974 15.8059 70.625 15.5393 70.625 15.1071V7.0625H100.641C102.045 7.06414 103.391 7.62272 104.384 8.61573C105.377 9.60873 105.936 10.9551 105.938 12.3594V40.6094H96.1277C94.9836 40.6107 93.8868 41.0657 93.0778 41.8747C92.2688 42.6837 91.8138 43.7805 91.8125 44.9246V44.9237Z" fill="#287149"/>
<path d="M105.048 84.8214C104.287 84.695 103.508 84.736 102.764 84.9414C102.02 85.1468 101.33 85.5117 100.741 86.0107C100.707 86.0403 100.673 86.0701 100.639 86.1006C99.6685 85.2307 98.4112 84.7498 97.1081 84.7501C95.805 84.7503 94.5479 85.2318 93.5781 86.1021C92.8707 85.4678 92.0056 85.0356 91.0735 84.851C90.1415 84.6663 89.177 84.736 88.2812 85.0527V76.0424C88.2812 73.0791 85.8563 70.5759 82.8936 70.6257C81.5052 70.6512 80.1822 71.2201 79.2087 72.2104C78.2353 73.2007 77.6891 74.5333 77.6874 75.9219V95.7568L72.7062 92.894C71.6559 92.2902 70.4175 92.1018 69.2351 92.3658C68.0527 92.6298 67.0121 93.327 66.3184 94.3202C65.5955 95.3552 65.3049 96.6314 65.5087 97.8772C65.7124 99.1231 66.3942 100.24 67.4091 100.991L78.4268 109.14C78.7263 109.354 79.0851 109.469 79.4531 109.469H107.703C108.171 109.469 108.62 109.283 108.952 108.952C109.283 108.621 109.469 108.171 109.469 107.703V90.2359C109.469 87.5592 107.568 85.2314 105.048 84.8214ZM105.937 105.938H80.0187L69.2786 98.3505C69.1119 98.2327 68.9703 98.0829 68.862 97.9099C68.7538 97.7368 68.6811 97.5439 68.6482 97.3424C68.6153 97.1409 68.6229 96.9349 68.6705 96.7364C68.7182 96.5379 68.8048 96.3509 68.9255 96.1862C69.1529 95.876 69.4884 95.6624 69.8657 95.5875C70.243 95.5126 70.6346 95.5819 70.9633 95.7817L78.5431 100.389C78.8713 100.586 79.2545 100.671 79.6351 100.631C80.0158 100.591 80.3731 100.429 80.6535 100.168C80.8353 99.9946 80.9794 99.7852 81.0767 99.5532C81.1739 99.3212 81.2223 99.0716 81.2187 98.8201V75.9844C81.2127 75.5291 81.3787 75.0883 81.6836 74.7501C81.9886 74.4119 82.4099 74.2013 82.8634 74.1603C83.1048 74.144 83.347 74.1775 83.575 74.2586C83.803 74.3397 84.0118 74.4668 84.1887 74.632C84.3656 74.7971 84.5066 74.9968 84.6032 75.2187C84.6997 75.4406 84.7497 75.68 84.7499 75.9219V89.9836C84.7439 90.4441 84.9138 90.8896 85.225 91.2291C85.5362 91.5686 85.9653 91.7765 86.4246 91.8104C86.6587 91.8226 86.8928 91.7881 87.1134 91.7089C87.3339 91.6297 87.5365 91.5074 87.7093 91.3491C87.8821 91.1908 88.0217 90.9996 88.1199 90.7868C88.2181 90.574 88.2729 90.3438 88.2812 90.1096C88.3132 89.1946 88.951 88.3846 89.8619 88.2908C90.1037 88.2655 90.3482 88.2904 90.58 88.3639C90.8118 88.4374 91.0259 88.5579 91.2091 88.7179C91.3922 88.878 91.5403 89.074 91.6442 89.2939C91.7481 89.5138 91.8055 89.7527 91.8129 89.9957C91.8128 90.437 91.9728 90.8633 92.2631 91.1956C92.5534 91.5279 92.9543 91.7436 93.3916 91.8029C93.6339 91.8287 93.879 91.8041 94.1114 91.7305C94.3437 91.657 94.5584 91.5362 94.7417 91.3756C94.9251 91.2151 95.0733 91.0183 95.1769 90.7977C95.2805 90.5771 95.3373 90.3374 95.3437 90.0937C95.3442 89.6528 95.5046 89.2271 95.7952 88.8955C96.0858 88.5639 96.4869 88.3491 96.9239 88.2908C97.1649 88.2655 97.4085 88.2901 97.6396 88.3629C97.8707 88.4357 98.0844 88.5553 98.2673 88.7142C98.4503 88.873 98.5986 89.0678 98.7032 89.2864C98.8077 89.505 98.8662 89.7428 98.8749 89.9849C98.9078 90.9315 99.5982 91.7589 100.544 91.8099C100.783 91.8234 101.022 91.788 101.247 91.7059C101.472 91.6239 101.678 91.4969 101.852 91.3326C102.027 91.1684 102.166 90.9704 102.261 90.7506C102.356 90.5309 102.405 90.2941 102.406 90.0547C102.406 89.6003 102.586 89.1645 102.907 88.8425C103.227 88.5205 103.662 88.3385 104.117 88.3365C105.386 88.3365 105.937 89.2871 105.937 90.2359V105.938Z" fill="#287149"/>
<path d="M33.5469 63.5625C30.404 63.5625 27.3317 64.4945 24.7185 66.2406C22.1053 67.9866 20.0686 70.4684 18.8659 73.372C17.6631 76.2757 17.3484 79.4708 17.9616 82.5532C18.5747 85.6357 20.0882 88.4671 22.3105 90.6895C24.5329 92.9118 27.3643 94.4253 30.4468 95.0384C33.5293 95.6516 36.7243 95.3369 39.628 94.1341C42.5316 92.9314 45.0134 90.8947 46.7595 88.2815C48.5055 85.6683 49.4375 82.596 49.4375 79.4531C49.4328 75.2401 47.7571 71.201 44.778 68.222C41.799 65.2429 37.7599 63.5672 33.5469 63.5625ZM33.5469 91.8125C31.1024 91.8125 28.7129 91.0876 26.6804 89.7296C24.6479 88.3715 23.0638 86.4412 22.1283 84.1829C21.1929 81.9245 20.9481 79.4394 21.425 77.0419C21.9019 74.6444 23.079 72.4422 24.8075 70.7137C26.536 68.9852 28.7382 67.8081 31.1357 67.3312C33.5332 66.8543 36.0182 67.0991 38.2766 68.0346C40.535 68.97 42.4653 70.5541 43.8233 72.5866C45.1814 74.6191 45.9063 77.0087 45.9063 79.4531C45.9025 82.7299 44.5992 85.8714 42.2822 88.1884C39.9651 90.5054 36.8236 91.8088 33.5469 91.8125Z" fill="#287149"/>
<path d="M33.5469 72.3906C32.15 72.3906 30.7846 72.8048 29.6232 73.5809C28.4617 74.3569 27.5565 75.4599 27.022 76.7504C26.4874 78.0409 26.3476 79.461 26.6201 80.831C26.8926 82.2009 27.5652 83.4594 28.5529 84.4471C29.5406 85.4348 30.7991 86.1074 32.1691 86.3799C33.539 86.6524 34.9591 86.5126 36.2496 85.978C37.5401 85.4435 38.6431 84.5383 39.4191 83.3769C40.1952 82.2154 40.6094 80.85 40.6094 79.4531C40.6073 77.5807 39.8625 75.7855 38.5385 74.4615C37.2145 73.1375 35.4193 72.3927 33.5469 72.3906ZM33.5469 82.9844C32.8485 82.9844 32.1657 82.7773 31.585 82.3893C31.0043 82.0012 30.5517 81.4497 30.2844 80.8045C30.0172 80.1592 29.9472 79.4492 30.0835 78.7642C30.2197 78.0792 30.5561 77.45 31.0499 76.9562C31.5438 76.4623 32.173 76.126 32.858 75.9897C33.543 75.8535 34.253 75.9234 34.8982 76.1907C35.5435 76.458 36.095 76.9106 36.483 77.4913C36.871 78.072 37.0781 78.7547 37.0781 79.4531C37.077 80.3893 36.7046 81.2869 36.0426 81.9489C35.3806 82.6109 34.4831 82.9833 33.5469 82.9844Z" fill="#287149"/>
</svg>
