<svg width="113" height="113" viewBox="0 0 113 113" fill="none" xmlns="http://www.w3.org/2000/svg">
<path d="M57.85 88.8999H55.15V91.5999H57.85V88.8999Z" fill="#359660"/>
<path d="M21.4 48.4H33.1413L40.9011 53.5732C41.1044 53.7088 41.3407 53.7866 41.5847 53.7984C41.8288 53.8102 42.0715 53.7556 42.287 53.6403C42.5024 53.525 42.6825 53.3534 42.8081 53.1437C42.9337 52.9341 43 52.6944 43 52.45V48.4H48.4C49.8317 48.3986 51.2044 47.8292 52.2168 46.8168C53.2292 45.8044 53.7986 44.4317 53.8 43V21.4C53.7986 19.9683 53.2292 18.5956 52.2168 17.5832C51.2044 16.5708 49.8317 16.0014 48.4 16H21.4C19.9683 16.0014 18.5956 16.5708 17.5832 17.5832C16.5708 18.5956 16.0014 19.9683 16 21.4V43C16.0014 44.4317 16.5708 45.8044 17.5832 46.8168C18.5956 47.8292 19.9683 48.3986 21.4 48.4ZM18.7 21.4C18.7009 20.6842 18.9857 19.998 19.4918 19.4918C19.998 18.9857 20.6842 18.7009 21.4 18.7H48.4C49.1158 18.7009 49.802 18.9857 50.3082 19.4918C50.8143 19.998 51.0991 20.6842 51.1 21.4V43C51.0991 43.7158 50.8143 44.402 50.3082 44.9082C49.802 45.4143 49.1158 45.6991 48.4 45.7H41.65C41.292 45.7 40.9486 45.8422 40.6954 46.0954C40.4422 46.3486 40.3 46.692 40.3 47.05V49.928L34.2989 45.9268C34.0771 45.779 33.8165 45.7001 33.55 45.7H21.4C20.6842 45.6991 19.998 45.4143 19.4918 44.9082C18.9857 44.402 18.7009 43.7158 18.7 43V21.4Z" fill="#359660"/>
<path d="M25.45 42.9999H42.46C43.3189 42.9987 44.1423 42.6569 44.7497 42.0495C45.357 41.4422 45.6988 40.6188 45.7 39.7599V32.7399C45.6988 31.881 45.357 31.0576 44.7497 30.4503C44.1423 29.8429 43.3189 29.5012 42.46 29.4999H40.3V26.7999C40.2986 25.3682 39.7292 23.9955 38.7168 22.9831C37.7044 21.9707 36.3317 21.4013 34.9 21.3999C34.1842 21.4008 33.498 21.6856 32.9919 22.1917C32.4857 22.6979 32.2009 23.3841 32.2 24.0999V27.591L30.2911 29.4999H25.45C25.092 29.4999 24.7486 29.6421 24.4954 29.8953C24.2422 30.1485 24.1 30.4919 24.1 30.8499V41.6499C24.1 42.0079 24.2422 42.3513 24.4954 42.6045C24.7486 42.8577 25.092 42.9999 25.45 42.9999ZM34.5045 29.1044C34.6299 28.9791 34.7294 28.8303 34.7972 28.6665C34.8651 28.5027 34.9 28.3272 34.9 28.1499V24.0999C35.6158 24.1008 36.302 24.3856 36.8082 24.8917C37.3143 25.3979 37.5991 26.0841 37.6 26.7999V29.4999H36.25V32.1999H42.46C42.6031 32.2003 42.7403 32.2573 42.8414 32.3585C42.9426 32.4597 42.9997 32.5968 43 32.7399V39.7599C42.9997 39.903 42.9426 40.0402 42.8414 40.1413C42.7403 40.2425 42.6031 40.2995 42.46 40.2999H32.2V31.4088L34.5045 29.1044ZM26.8 32.1999H29.5V40.2999H26.8V32.1999Z" fill="#359660"/>
<path d="M91.6 26.7999H77.9635C77.6504 25.2765 76.8216 23.9076 75.6169 22.924C74.4122 21.9403 72.9053 21.4021 71.35 21.3999H56.5V24.0999H71.35C72.1848 24.1025 72.9984 24.3634 73.679 24.8468C74.3596 25.3302 74.8739 26.0125 75.1513 26.7999H67.3C66.3564 26.8029 65.4301 27.0539 64.6142 27.5278C63.7982 28.0017 63.1211 28.6818 62.6509 29.4999H56.5V32.1999H61.9V51.0999C61.9014 52.5316 62.4708 53.9043 63.4832 54.9167C64.4956 55.9291 65.8683 56.4985 67.3 56.4999V60.5499C67.3 60.7943 67.3663 61.034 67.4919 61.2436C67.6175 61.4533 67.7976 61.6249 68.013 61.7402C68.2285 61.8555 68.4712 61.9101 68.7152 61.8983C68.9593 61.8865 69.1956 61.8087 69.3989 61.6731L75.4 57.6724V68.091L72.9795 65.6705C71.8312 64.5222 70.2739 63.8771 68.65 63.8771C67.0261 63.8771 65.4688 64.5222 64.3205 65.6705C63.1723 66.8187 62.5272 68.376 62.5272 69.9999C62.5272 71.6238 63.1723 73.1811 64.3205 74.3294L70.9599 80.9687C70.4369 81.7632 70.0013 82.6119 69.6605 83.4999H57.85V86.1999H68.9369C68.4979 88.9697 68.9541 91.8073 70.2393 94.2999H41.65C40.5762 94.2987 39.5468 93.8716 38.7875 93.1124C38.0283 92.3531 37.6012 91.3237 37.6 90.2499H48.4C49.8317 90.2485 51.2044 89.6791 52.2168 88.6667C53.2292 87.6543 53.7986 86.2816 53.8 84.8499V74.0499C53.7986 72.6182 53.2292 71.2455 52.2168 70.2331C51.2044 69.2207 49.8317 68.6513 48.4 68.6499H43V64.5999C43 64.3555 42.9337 64.1158 42.8081 63.9062C42.6825 63.6965 42.5024 63.5249 42.287 63.4096C42.0715 63.2943 41.8288 63.2397 41.5847 63.2515C41.3407 63.2633 41.1044 63.3411 40.9011 63.4767L37.6 65.6774V53.7999H34.9V67.4774L33.1413 68.6499H21.4C19.9683 68.6513 18.5956 69.2207 17.5832 70.2331C16.5708 71.2455 16.0014 72.6182 16 74.0499V84.8499C16.0014 86.2816 16.5708 87.6543 17.5832 88.6667C18.5956 89.6791 19.9683 90.2485 21.4 90.2499H34.9C34.9021 92.0395 35.6139 93.7551 36.8793 95.0206C38.1448 96.286 39.8604 96.9978 41.65 96.9999H88.9C89.258 96.9999 89.6014 96.8577 89.8546 96.6045C90.1078 96.3513 90.25 96.0079 90.25 95.6499V70.0539C90.2552 66.4883 88.9713 63.041 86.635 60.3474L83.6676 56.4999H91.6C93.0317 56.4985 94.4044 55.9291 95.4168 54.9167C96.4292 53.9043 96.9986 52.5316 97 51.0999V32.1999C96.9986 30.7682 96.4292 29.3955 95.4168 28.3831C94.4044 27.3707 93.0317 26.8013 91.6 26.7999ZM21.4 87.5499C20.6842 87.549 19.998 87.2642 19.4918 86.7581C18.9857 86.2519 18.7009 85.5657 18.7 84.8499V74.0499C18.7009 73.3341 18.9857 72.6479 19.4918 72.1417C19.998 71.6356 20.6842 71.3508 21.4 71.3499H33.55C33.8165 71.3498 34.0771 71.2709 34.2989 71.1231L40.3 67.1219V69.9999C40.3 70.3579 40.4422 70.7013 40.6954 70.9545C40.9486 71.2077 41.292 71.3499 41.65 71.3499H48.4C49.1158 71.3508 49.802 71.6356 50.3082 72.1417C50.8143 72.6479 51.0991 73.3341 51.1 74.0499V84.8499C51.0991 85.5657 50.8143 86.2519 50.3082 86.7581C49.802 87.2642 49.1158 87.549 48.4 87.5499H21.4ZM84.5495 62.0594C86.4842 64.2733 87.5503 67.1138 87.55 70.0539V94.2999H73.3829C72.1645 92.5729 71.4963 90.5181 71.466 88.4048C71.4356 86.2915 72.0445 84.2183 73.2128 82.457L73.8203 81.5527C73.9948 81.2929 74.0735 80.9807 74.0432 80.6693C74.0129 80.3579 73.8754 80.0667 73.6541 79.8455L66.2291 72.4205C65.5871 71.7785 65.2265 70.9078 65.2265 69.9999C65.2265 69.092 65.5871 68.2213 66.2291 67.5794C66.8711 66.9374 67.7418 66.5767 68.6497 66.5767C69.5575 66.5767 70.4282 66.9374 71.0702 67.5794L81.1952 77.7044L83.1041 75.7955L78.1 70.791V56.4999H80.2581L84.5495 62.0594ZM94.3 51.0999C94.2991 51.8157 94.0143 52.5019 93.5082 53.0081C93.002 53.5142 92.3158 53.799 91.6 53.7999H76.75C76.4835 53.8 76.2229 53.8789 76.0011 54.0267L70 58.0279V55.1499C70 54.7919 69.8578 54.4485 69.6046 54.1953C69.3514 53.9421 69.008 53.7999 68.65 53.7999H67.3C66.5842 53.799 65.898 53.5142 65.3918 53.0081C64.8857 52.5019 64.6009 51.8157 64.6 51.0999V32.1999C64.6009 31.4841 64.8857 30.7979 65.3918 30.2917C65.898 29.7856 66.5842 29.5008 67.3 29.4999H91.6C92.3158 29.5008 93.002 29.7856 93.5082 30.2917C94.0143 30.7979 94.2991 31.4841 94.3 32.1999V51.0999Z" fill="#359660"/>
<path d="M85.4472 33.6503C84.643 33.4982 83.815 33.5262 83.0229 33.7322C82.2308 33.9383 81.4941 34.3173 80.866 34.842L79.45 36.0064L78.0353 34.842C77.4075 34.3164 76.6706 33.9368 75.8781 33.7307C75.0856 33.5246 74.2572 33.4971 73.4528 33.6503C72.6069 33.8226 71.8096 34.1802 71.1184 34.6974C70.4273 35.2146 69.8593 35.8786 69.4554 36.6416C67.9276 39.4325 68.6117 42.9763 71.0467 44.8826L78.618 50.8132C78.8554 50.9994 79.1483 51.1006 79.45 51.1006C79.7516 51.1006 80.0446 50.9994 80.2819 50.8132L87.8537 44.8826C90.2888 42.9758 90.9729 39.432 89.445 36.6402C89.0408 35.8775 88.4727 35.2138 87.7815 34.6969C87.0902 34.1799 86.293 33.8225 85.4472 33.6503ZM86.1897 42.7574L79.45 48.0349L72.7104 42.7574C71.3275 41.6739 70.9374 39.5566 71.8233 37.9376C72.0376 37.5239 72.3406 37.1627 72.7107 36.8797C73.0808 36.5967 73.5089 36.399 73.9643 36.3007C74.3789 36.2212 74.8061 36.2364 75.214 36.3451C75.6219 36.4537 76 36.6531 76.3202 36.9283L78.5931 38.7977C78.8347 38.9959 79.1375 39.1042 79.45 39.1042C79.7625 39.1042 80.0653 38.9959 80.3069 38.7977L82.5811 36.9283C82.9017 36.6543 83.2796 36.4557 83.6871 36.3471C84.0946 36.2384 84.5213 36.2226 84.9357 36.3007C85.391 36.3991 85.8189 36.5967 86.189 36.8795C86.5591 37.1623 86.8622 37.5233 87.0766 37.9367C87.9626 39.5566 87.5724 41.6739 86.1895 42.7574H86.1897Z" fill="#359660"/>
<path d="M40.3 75.3999H21.4V78.0999H40.3V75.3999Z" fill="#359660"/>
<path d="M48.4 75.3999H43V78.0999H48.4V75.3999Z" fill="#359660"/>
<path d="M29.5 80.8H21.4V83.5H29.5V80.8Z" fill="#359660"/>
<path d="M48.4 80.8H32.2V83.5H48.4V80.8Z" fill="#359660"/>
</svg>
