<svg width="104" height="104" viewBox="0 0 104 104" fill="none" xmlns="http://www.w3.org/2000/svg">
<path d="M78.6667 26.1253V18.6667C78.662 14.9867 75.68 12.0047 72 12H18.6667C14.9867 12.0047 12.0047 14.9867 12 18.6667V48C12.0103 51.405 14.5913 54.2527 17.9787 54.598L22.9907 67.6083C24.3147 71.0437 28.1727 72.755 31.6083 71.4327L62.9067 59.376C60.744 65.025 61.3593 71.362 64.5673 76.4897L65.3333 77.7147V90.6667C65.3333 91.4033 65.93 92 66.6667 92H90.6667C91.4033 92 92 91.4033 92 90.6667V46.655C91.9873 42.044 90.1517 37.626 86.8917 34.365L78.6667 26.1253ZM78.6667 34.0993L82.7133 44.604C83.5063 46.666 82.4787 48.9797 80.417 49.7733L78.104 50.6667C78.4733 49.826 78.6647 48.9173 78.6667 48V34.0993ZM14.6667 48V18.6667C14.6667 16.458 16.458 14.6667 18.6667 14.6667H72C74.2087 14.6667 76 16.458 76 18.6667V27.1413H75.9883L76 27.1717V48C75.9897 48.2327 75.9593 48.4633 75.9093 48.6907L63.696 36.476C60.9507 33.794 56.574 33.7733 53.804 36.4273C51.0333 39.083 50.867 43.4563 53.4293 46.313L58.636 52H18.6667C16.458 52 14.6667 50.2087 14.6667 48ZM31.748 54.6667L22.2667 58.317L20.864 54.6667H31.748ZM30.6493 68.9437C28.588 69.7383 26.273 68.7107 25.4787 66.6493L23.2293 60.8L39.1453 54.6667V54.6587H61.08L62.813 56.548L30.6493 68.9437ZM89.3333 89.3333H68V78.6667H89.3333V89.3333ZM89.3333 76H67.4067L66.8283 75.076C63.5773 69.8807 63.448 63.3187 66.4907 58C66.7787 57.4967 66.708 56.8647 66.316 56.4373L55.3897 44.5173C53.7603 42.734 53.852 39.977 55.5963 38.3067C57.3413 36.636 60.0997 36.6633 61.8103 38.3673L83.0573 59.6093L84.9427 57.724L80.0093 52.7907L81.3773 52.2573C84.81 50.933 86.5207 47.0783 85.2 43.6437L80.687 31.925L85.0063 36.2533C87.7663 39.0127 89.3227 42.752 89.3333 46.655V76Z" fill="#359660"/>
<path d="M27.2 30.6666C29.1147 30.6666 30.6667 29.1146 30.6667 27.1999V20.7999C30.6667 18.8853 29.1147 17.3333 27.2 17.3333H20.8C18.8853 17.3333 17.3333 18.8853 17.3333 20.7999V27.1999C17.3333 29.1146 18.8853 30.6666 20.8 30.6666H27.2ZM20 27.1999V25.3333H22.6667V22.6666H20V20.7999C20 20.3583 20.3583 19.9999 20.8 19.9999H27.2C27.6417 19.9999 28 20.3583 28 20.7999V22.6666H25.3333V25.3333H28V27.1999C28 27.6416 27.6417 27.9999 27.2 27.9999H20.8C20.3583 27.9999 20 27.6416 20 27.1999Z" fill="#359660"/>
<path d="M18.9231 42.7693H39.6923V45.077H18.9231V42.7693Z" fill="#359660"/>
<path d="M42.6667 42.6667H48V45.3334H42.6667V42.6667Z" fill="#359660"/>
<path d="M68 18.6667H70.6667V22.6667H68V18.6667Z" fill="#359660"/>
<path d="M62.6667 18.6667H65.3334V22.6667H62.6667V18.6667Z" fill="#359660"/>
<path d="M57.3333 18.6667H60V22.6667H57.3333V18.6667Z" fill="#359660"/>
<path d="M70.6667 81.3333H73.3334V83.9999H70.6667V81.3333Z" fill="#359660"/>
</svg>
