<svg width="86" height="86" viewBox="0 0 86 86" fill="none" xmlns="http://www.w3.org/2000/svg">
<path d="M72.9501 14.7612H13.0496C9.74261 14.7612 7.05957 17.4717 7.05957 20.8124V65.1877C7.05957 68.5284 9.74261 71.2388 13.0496 71.2388H72.9501C76.2571 71.2388 78.9402 68.5284 78.9402 65.1877V20.8124C78.9402 17.4717 76.2571 14.7612 72.9501 14.7612ZM72.9501 65.1877H13.0496V20.8124H72.9501V65.1877ZM33.0165 43C37.4216 43 41.0032 39.3819 41.0032 34.9318C41.0032 30.4817 37.4216 26.8636 33.0165 26.8636C28.6113 26.8636 25.0297 30.4817 25.0297 34.9318C25.0297 39.3819 28.6113 43 33.0165 43ZM21.835 59.1365H44.1979C45.7453 59.1365 46.9932 58.0523 46.9932 56.716V54.2956C46.9932 50.2867 43.237 47.0342 38.6072 47.0342C37.2594 47.0342 36.2735 48.0427 33.0165 48.0427C29.6595 48.0427 28.8484 47.0342 27.4257 47.0342C22.7959 47.0342 19.0397 50.2867 19.0397 54.2956V56.716C19.0397 58.0523 20.2876 59.1365 21.835 59.1365ZM51.9849 51.0683H65.9617C66.5108 51.0683 66.9601 50.6144 66.9601 50.0597V48.0427C66.9601 47.488 66.5108 47.0342 65.9617 47.0342H51.9849C51.4359 47.0342 50.9866 47.488 50.9866 48.0427V50.0597C50.9866 50.6144 51.4359 51.0683 51.9849 51.0683ZM51.9849 43H65.9617C66.5108 43 66.9601 42.5462 66.9601 41.9915V39.9745C66.9601 39.4198 66.5108 38.9659 65.9617 38.9659H51.9849C51.4359 38.9659 50.9866 39.4198 50.9866 39.9745V41.9915C50.9866 42.5462 51.4359 43 51.9849 43ZM51.9849 34.9318H65.9617C66.5108 34.9318 66.9601 34.478 66.9601 33.9233V31.9062C66.9601 31.3515 66.5108 30.8977 65.9617 30.8977H51.9849C51.4359 30.8977 50.9866 31.3515 50.9866 31.9062V33.9233C50.9866 34.478 51.4359 34.9318 51.9849 34.9318Z" fill="#287149"/>
</svg>
