<svg width="86" height="86" viewBox="0 0 86 86" fill="none" xmlns="http://www.w3.org/2000/svg">
<path d="M33.1487 43C40.1676 43 45.8561 37.254 45.8561 30.1642C45.8561 23.0744 40.1676 17.3284 33.1487 17.3284C26.1298 17.3284 20.4412 23.0744 20.4412 30.1642C20.4412 37.254 26.1298 43 33.1487 43ZM42.0439 46.209H40.386C38.182 47.2318 35.7299 47.8134 33.1487 47.8134C30.5675 47.8134 28.1253 47.2318 25.9114 46.209H24.2535C16.8871 46.209 10.9106 52.2458 10.9106 59.6866V63.8582C10.9106 66.5156 13.0451 68.6716 15.6759 68.6716H50.6214C53.2523 68.6716 55.3867 66.5156 55.3867 63.8582V59.6866C55.3867 52.2458 49.4103 46.209 42.0439 46.209ZM74.1104 33.333L71.3505 30.5152C70.8938 30.0439 70.1492 30.0439 69.6826 30.5051L59.2784 40.9342L54.7613 36.3414C54.3046 35.8701 53.56 35.8701 53.0934 36.3314L50.3038 39.1292C49.8372 39.5905 49.8372 40.3426 50.2938 40.8139L58.4048 49.0669C58.8614 49.5383 59.606 49.5383 60.0726 49.077L74.1005 35.0177C74.5571 34.5464 74.5671 33.7943 74.1104 33.333Z" fill="#287149"/>
</svg>
