<svg width="86" height="86" viewBox="0 0 86 86" fill="none" xmlns="http://www.w3.org/2000/svg">
<path d="M63.2164 16.0449H51.9851C51.9851 11.0891 47.9559 7.05981 43 7.05981C38.0442 7.05981 34.0149 11.0891 34.0149 16.0449H22.7836C19.0632 16.0449 16.0448 19.0633 16.0448 22.7837V72.2016C16.0448 75.922 19.0632 78.9404 22.7836 78.9404H63.2164C66.9368 78.9404 69.9552 75.922 69.9552 72.2016V22.7837C69.9552 19.0633 66.9368 16.0449 63.2164 16.0449ZM43 12.6755C44.8672 12.6755 46.3694 14.1777 46.3694 16.0449C46.3694 17.9121 44.8672 19.4143 43 19.4143C41.1328 19.4143 39.6306 17.9121 39.6306 16.0449C39.6306 14.1777 41.1328 12.6755 43 12.6755ZM63.2164 71.3593C63.2164 71.8225 62.8374 72.2016 62.3741 72.2016H23.626C23.1627 72.2016 22.7836 71.8225 22.7836 71.3593V23.626C22.7836 23.1628 23.1627 22.7837 23.626 22.7837H29.5224V27.8378C29.5224 28.7644 30.2805 29.5225 31.2071 29.5225H54.7929C55.7195 29.5225 56.4776 28.7644 56.4776 27.8378V22.7837H62.3741C62.8374 22.7837 63.2164 23.1628 63.2164 23.626V71.3593Z" fill="#287149"/>
</svg>
