<svg width="86" height="86" viewBox="0 0 86 86" fill="none" xmlns="http://www.w3.org/2000/svg">
<path d="M54.8733 42.0173V45.4569C54.8733 46.2676 54.2054 46.931 53.3892 46.931H32.6112C31.7949 46.931 31.127 46.2676 31.127 45.4569V42.0173C31.127 41.2065 31.7949 40.5432 32.6112 40.5432H53.3892C54.2054 40.5432 54.8733 41.2065 54.8733 42.0173ZM53.3892 50.8619H32.6112C31.7949 50.8619 31.127 51.5253 31.127 52.3361V55.7757C31.127 56.5864 31.7949 57.2498 32.6112 57.2498H53.3892C54.2054 57.2498 54.8733 56.5864 54.8733 55.7757V52.3361C54.8733 51.5253 54.2054 50.8619 53.3892 50.8619ZM66.7464 27.7552V68.5513C66.7464 71.8066 64.0874 74.4478 60.8099 74.4478H25.1905C21.913 74.4478 19.2539 71.8066 19.2539 68.5513V17.4487C19.2539 14.1934 21.913 11.5522 25.1905 11.5522H50.4333C52.004 11.5522 53.5128 12.1787 54.626 13.2843L65.0026 23.5908C66.1157 24.6841 66.7464 26.1951 66.7464 27.7552ZM50.9156 17.9278V27.2761H60.3275L50.9156 17.9278ZM60.8099 68.5513V33.1726H47.9473C46.3024 33.1726 44.979 31.8582 44.979 30.2244V17.4487H25.1905V68.5513H60.8099Z" fill="#287149"/>
</svg>
