<svg width="113" height="113" viewBox="0 0 113 113" fill="none" xmlns="http://www.w3.org/2000/svg">
<path d="M100.566 24.3011L88.6989 12.4344C88.5611 12.2967 88.3976 12.1874 88.2176 12.1129C88.0377 12.0384 87.8448 12 87.65 12H46.1167C45.7233 12 45.346 12.1563 45.0678 12.4345C44.7896 12.7126 44.6333 13.0899 44.6333 13.4833V29.8H47.6V14.9667H86.1666V25.35C86.1666 25.7434 86.3229 26.1207 86.6011 26.3989C86.8793 26.677 87.2566 26.8333 87.65 26.8333H98.0333V83.2H95.0666V86.1666H99.5166C99.91 86.1666 100.287 86.0103 100.566 85.7322C100.844 85.454 101 85.0767 101 84.6833V25.35C101 25.1552 100.962 24.9623 100.887 24.7823C100.813 24.6024 100.703 24.4388 100.566 24.3011ZM89.1333 17.0645L95.9355 23.8667H89.1333V17.0645Z" fill="#359660"/>
<path d="M53.5333 98.0332H19.4167C18.2369 98.0319 17.1058 97.5626 16.2716 96.7283C15.4373 95.8941 14.9681 94.763 14.9667 93.5832V40.1833C14.9681 39.0035 15.4373 37.8724 16.2716 37.0382C17.1058 36.2039 18.2369 35.7346 19.4167 35.7333H53.5333C54.7131 35.7346 55.8442 36.2039 56.6784 37.0382C57.5127 37.8724 57.982 39.0035 57.9833 40.1833V47.5999H60.95V40.1833C60.9478 38.2169 60.1657 36.3317 58.7753 34.9413C57.3849 33.5509 55.4997 32.7688 53.5333 32.7666H19.4167C17.4503 32.7688 15.5652 33.5509 14.1748 34.9413C12.7843 36.3317 12.0022 38.2169 12 40.1833V93.5832C12.0022 95.5496 12.7843 97.4347 14.1748 98.8252C15.5652 100.216 17.4503 100.998 19.4167 101H53.5333C55.1783 101.001 56.7769 100.455 58.0774 99.4477C59.3779 98.4404 60.3064 97.0291 60.7166 95.4361L57.8426 94.697C57.5963 95.6524 57.0392 96.4988 56.259 97.1028C55.4789 97.7068 54.52 98.0341 53.5333 98.0332Z" fill="#359660"/>
<path d="M26.8334 84.6833H19.4167C19.0233 84.6833 18.646 84.8396 18.3678 85.1178C18.0896 85.396 17.9334 85.7733 17.9334 86.1667V93.5833C17.9334 93.9767 18.0896 94.354 18.3678 94.6322C18.646 94.9104 19.0233 95.0667 19.4167 95.0667H26.8334C27.2268 95.0667 27.6041 94.9104 27.8822 94.6322C28.1604 94.354 28.3167 93.9767 28.3167 93.5833V86.1667C28.3167 85.7733 28.1604 85.396 27.8822 85.1178C27.6041 84.8396 27.2268 84.6833 26.8334 84.6833ZM25.35 92.1H20.9V87.65H25.35V92.1Z" fill="#359660"/>
<path d="M31.2834 93.5833C31.2834 93.9767 31.4396 94.354 31.7178 94.6322C31.996 94.9104 32.3733 95.0667 32.7667 95.0667H40.1833C40.5768 95.0667 40.954 94.9104 41.2322 94.6322C41.5104 94.354 41.6667 93.9767 41.6667 93.5833V86.1667C41.6667 85.7733 41.5104 85.396 41.2322 85.1178C40.954 84.8396 40.5768 84.6833 40.1833 84.6833H32.7667C32.3733 84.6833 31.996 84.8396 31.7178 85.1178C31.4396 85.396 31.2834 85.7733 31.2834 86.1667V93.5833ZM34.25 87.65H38.7V92.1H34.25V87.65Z" fill="#359660"/>
<path d="M28.3167 72.8166C28.3167 72.4232 28.1604 72.0459 27.8822 71.7677C27.6041 71.4895 27.2268 71.3333 26.8334 71.3333H19.4167C19.0233 71.3333 18.646 71.4895 18.3678 71.7677C18.0896 72.0459 17.9334 72.4232 17.9334 72.8166V80.2332C17.9334 80.6267 18.0896 81.0039 18.3678 81.2821C18.646 81.5603 19.0233 81.7166 19.4167 81.7166H26.8334C27.2268 81.7166 27.6041 81.5603 27.8822 81.2821C28.1604 81.0039 28.3167 80.6267 28.3167 80.2332V72.8166ZM25.35 78.7499H20.9V74.2999H25.35V78.7499Z" fill="#359660"/>
<path d="M31.2834 80.2332C31.2834 80.6267 31.4396 81.0039 31.7178 81.2821C31.996 81.5603 32.3733 81.7166 32.7667 81.7166H40.1833C40.5768 81.7166 40.954 81.5603 41.2322 81.2821C41.5104 81.0039 41.6667 80.6267 41.6667 80.2332V72.8166C41.6667 72.4232 41.5104 72.0459 41.2322 71.7677C40.954 71.4895 40.5768 71.3333 40.1833 71.3333H32.7667C32.3733 71.3333 31.996 71.4895 31.7178 71.7677C31.4396 72.0459 31.2834 72.4232 31.2834 72.8166V80.2332ZM34.25 74.2999H38.7V78.7499H34.25V74.2999Z" fill="#359660"/>
<path d="M28.3167 59.4667C28.3167 59.0733 28.1604 58.696 27.8822 58.4179C27.6041 58.1397 27.2268 57.9834 26.8334 57.9834H19.4167C19.0233 57.9834 18.646 58.1397 18.3678 58.4179C18.0896 58.696 17.9334 59.0733 17.9334 59.4667V66.8834C17.9334 67.2768 18.0896 67.6541 18.3678 67.9323C18.646 68.2104 19.0233 68.3667 19.4167 68.3667H26.8334C27.2268 68.3667 27.6041 68.2104 27.8822 67.9323C28.1604 67.6541 28.3167 67.2768 28.3167 66.8834V59.4667ZM25.35 65.4001H20.9V60.9501H25.35V65.4001Z" fill="#359660"/>
<path d="M32.7667 68.3667H40.1833C40.5768 68.3667 40.954 68.2104 41.2322 67.9323C41.5104 67.6541 41.6667 67.2768 41.6667 66.8834V59.4667C41.6667 59.0733 41.5104 58.696 41.2322 58.4179C40.954 58.1397 40.5768 57.9834 40.1833 57.9834H32.7667C32.3733 57.9834 31.996 58.1397 31.7178 58.4179C31.4396 58.696 31.2834 59.0733 31.2834 59.4667V66.8834C31.2834 67.2768 31.4396 67.6541 31.7178 67.9323C31.996 68.2104 32.3733 68.3667 32.7667 68.3667ZM34.25 60.9501H38.7V65.4001H34.25V60.9501Z" fill="#359660"/>
<path d="M47.6 57.9834H46.1167C45.7233 57.9834 45.346 58.1397 45.0678 58.4179C44.7896 58.696 44.6333 59.0733 44.6333 59.4667V63.9167H47.6V57.9834Z" fill="#359660"/>
<path d="M44.6333 93.5834C44.6333 93.9768 44.7896 94.3541 45.0678 94.6323C45.346 94.9104 45.7233 95.0667 46.1167 95.0667H53.5333C53.9267 95.0667 54.304 94.9104 54.5822 94.6323C54.8604 94.3541 55.0167 93.9768 55.0167 93.5834V90.6167H52.05V92.1001H47.6V80.2334H44.6333V93.5834Z" fill="#359660"/>
<path d="M55.0167 20.9001H83.2V23.8668H55.0167V20.9001Z" fill="#359660"/>
<path d="M55.0167 26.8333H83.2V29.7999H55.0167V26.8333Z" fill="#359660"/>
<path d="M91.0616 84.5131C94.3245 79.6375 95.6648 73.7258 94.8237 67.9197C93.9827 62.1137 91.0199 56.8253 86.5077 53.076C81.9955 49.3266 76.254 47.3824 70.3921 47.6188C64.5302 47.8552 58.9639 50.2554 54.7682 54.3558C54.9308 54.1124 55.0172 53.8261 55.0167 53.5333V41.6667C55.0167 41.2733 54.8604 40.896 54.5822 40.6178C54.304 40.3396 53.9267 40.1833 53.5333 40.1833H19.4167C19.0233 40.1833 18.646 40.3396 18.3678 40.6178C18.0896 40.896 17.9334 41.2733 17.9334 41.6667V53.5333C17.9334 53.9267 18.0896 54.304 18.3678 54.5822C18.646 54.8604 19.0233 55.0167 19.4167 55.0167H53.5333C53.8262 55.017 54.1125 54.9303 54.3558 54.7675C50.255 58.9631 47.8545 64.5295 47.6179 70.3916C47.3813 76.2537 49.3255 81.9955 53.0749 86.5079C56.8244 91.0203 62.113 93.9832 67.9192 94.8242C73.7255 95.6652 79.6374 94.3247 84.5131 91.0616L93.0979 99.6464C93.527 100.077 94.0373 100.419 94.5994 100.651C95.1614 100.884 95.7639 101.002 96.372 101C96.9799 101.001 97.582 100.881 98.1438 100.649C98.7056 100.417 99.216 100.076 99.6459 99.6459C100.076 99.216 100.417 98.7056 100.649 98.1438C100.881 97.582 101.001 96.9799 101 96.372C101.002 95.7639 100.883 95.1614 100.651 94.5994C100.419 94.0375 100.077 93.5272 99.6464 93.0981L91.0616 84.5131ZM52.05 52.05H20.9V43.15H52.05V52.05ZM50.5667 71.3333C50.5667 67.2261 51.7846 63.2111 54.0665 59.796C56.3484 56.3809 59.5917 53.7192 63.3863 52.1474C67.1809 50.5757 71.3564 50.1644 75.3847 50.9657C79.413 51.767 83.1133 53.7448 86.0176 56.6491C88.9218 59.5534 90.8997 63.2536 91.701 67.282C92.5022 71.3103 92.091 75.4858 90.5192 79.2804C88.9474 83.075 86.2857 86.3183 82.8707 88.6002C79.4556 90.882 75.4406 92.1 71.3333 92.1C65.8276 92.0937 60.5491 89.9038 56.656 86.0107C52.7628 82.1175 50.5729 76.8391 50.5667 71.3333ZM97.5481 97.5481C97.2352 97.8583 96.8126 98.0326 96.372 98.0333C96.1536 98.0343 95.9372 97.9919 95.7353 97.9086C95.5334 97.8253 95.3501 97.7028 95.1959 97.5481L86.8892 89.2423C87.7272 88.5136 88.5135 87.7276 89.2423 86.8898L97.5481 95.1964C97.7026 95.3506 97.8251 95.5339 97.9084 95.7356C97.9917 95.9374 98.0341 96.1537 98.0333 96.372C98.0327 96.8126 97.8583 97.2352 97.5481 97.5481Z" fill="#359660"/>
<path d="M71.3333 53.5334C67.8128 53.5334 64.3714 54.5774 61.4442 56.5333C58.517 58.4892 56.2355 61.2692 54.8883 64.5217C53.541 67.7742 53.1885 71.3532 53.8754 74.806C54.5622 78.2589 56.2575 81.4306 58.7468 83.9199C61.2362 86.4093 64.4079 88.1046 67.8607 88.7914C71.3136 89.4782 74.8926 89.1257 78.1451 87.7785C81.3976 86.4312 84.1776 84.1498 86.1335 81.2226C88.0894 78.2954 89.1333 74.8539 89.1333 71.3334C89.128 66.6142 87.251 62.0898 83.914 58.7528C80.577 55.4158 76.0526 53.5387 71.3333 53.5334ZM63.6506 75.8504C61.1109 74.8694 58.8269 73.325 56.9706 71.3334C58.83 69.3385 61.1185 67.7924 63.6632 66.8117C62.86 68.1819 62.4355 69.741 62.4333 71.3293C62.4311 72.9176 62.8512 74.4779 63.6506 75.8504ZM78.9736 66.7996C81.5301 67.78 83.8292 69.3306 85.6961 71.3334C83.8345 73.3306 81.5431 74.878 78.9951 75.8587C79.8092 74.4873 80.2371 72.9211 80.2333 71.3262C80.2295 69.7313 79.7942 68.1672 78.9736 66.7996ZM71.3333 56.5001C74.543 56.5045 77.665 57.5482 80.232 59.4751C82.799 61.402 84.6729 64.1084 85.5733 67.1892C81.7148 64.1306 76.7265 62.4334 71.3333 62.4334C65.9401 62.4334 60.9519 64.1306 57.0933 67.1892C57.9938 64.1084 59.8677 61.402 62.4347 59.4751C65.0017 57.5482 68.1236 56.5045 71.3333 56.5001ZM71.3333 86.1668C68.1236 86.1624 65.0017 85.1186 62.4347 83.1918C59.8677 81.2649 57.9938 78.5585 57.0933 75.4777C60.9519 78.5363 65.9401 80.2334 71.3333 80.2334C76.7265 80.2334 81.7148 78.5363 85.5733 75.4777C84.6729 78.5585 82.799 81.2649 80.232 83.1918C77.665 85.1186 74.543 86.1624 71.3333 86.1668ZM65.4 71.3334C65.4 70.1599 65.748 69.0128 66.4 68.0371C67.0519 67.0613 67.9786 66.3008 69.0627 65.8518C70.1469 65.4027 71.3399 65.2852 72.4909 65.5141C73.6418 65.743 74.699 66.3081 75.5288 67.1379C76.3586 67.9677 76.9237 69.0249 77.1527 70.1759C77.3816 71.3269 77.2641 72.5198 76.815 73.604C76.3659 74.6882 75.6054 75.6149 74.6297 76.2668C73.654 76.9188 72.5068 77.2668 71.3333 77.2668C69.7597 77.2668 68.2506 76.6416 67.1378 75.5289C66.0251 74.4162 65.4 72.907 65.4 71.3334Z" fill="#359660"/>
<path d="M71.3333 74.3C72.9718 74.3 74.3 72.9718 74.3 71.3334C74.3 69.6949 72.9718 68.3667 71.3333 68.3667C69.6949 68.3667 68.3667 69.6949 68.3667 71.3334C68.3667 72.9718 69.6949 74.3 71.3333 74.3Z" fill="#359660"/>
</svg>
