<svg width="113" height="113" viewBox="0 0 113 113" fill="none" xmlns="http://www.w3.org/2000/svg">
<path d="M57.0443 90.5H54.2109V93.3333H57.0443V90.5Z" fill="#359660"/>
<path d="M75.4609 68.6636L71.5042 64.7068C70.2992 63.5019 68.665 62.825 66.9609 62.825C65.2569 62.825 63.6226 63.5019 62.4177 64.7068C61.2127 65.9118 60.5358 67.546 60.5358 69.2501C60.5358 70.9541 61.2127 72.5884 62.4177 73.7933L70.8036 82.1807C70.2533 83.0133 69.794 83.9026 69.4337 84.8334H35.7943V66.4168H32.9609V91.9168C32.9631 93.7947 33.7101 95.5951 35.038 96.923C36.3659 98.2509 38.1663 98.9979 40.0443 99.0001H89.6276C90.0033 99.0001 90.3637 98.8508 90.6293 98.5852C90.895 98.3195 91.0443 97.9591 91.0443 97.5834V70.7296C91.0497 66.9847 89.7004 63.3642 87.2453 60.5363L78.2943 48.9335V26.7501C78.2921 24.8721 77.5451 23.0717 76.2172 21.7438C74.8893 20.4159 73.0889 19.669 71.2109 19.6667H69.7943V22.5001H71.2109C72.3377 22.5013 73.418 22.9495 74.2147 23.7463C75.0115 24.543 75.4597 25.6233 75.4609 26.7501V28.1667H69.7943V31.0001H75.4609V68.6636ZM35.7943 91.9168V87.6667H68.6638C68.1986 90.5739 68.6797 93.5537 70.0362 96.1668H40.0443C38.9175 96.1655 37.8372 95.7173 37.0405 94.9206C36.2437 94.1238 35.7955 93.0435 35.7943 91.9168ZM85.0567 62.3341C87.0901 64.6583 88.2108 67.6415 88.2109 70.7296V96.1668H73.3331C72.0496 94.3557 71.3468 92.1973 71.3179 89.9777C71.289 87.7582 71.9354 85.5822 73.1713 83.7383L73.8063 82.786C73.9879 82.5135 74.0695 82.1865 74.0372 81.8606C74.005 81.5347 73.8608 81.2301 73.6292 80.9985L64.4209 71.7902C63.7472 71.1165 63.3687 70.2028 63.3687 69.2501C63.3687 68.2974 63.7472 67.3837 64.4209 66.71C65.0945 66.0363 66.0082 65.6579 66.9609 65.6579C67.9137 65.6579 68.8274 66.0363 69.501 66.71L81.5427 78.7517L83.5459 76.7485L78.2943 71.4969V53.5713L85.0567 62.3341Z" fill="#359660"/>
<path d="M20.2109 59.3333H31.0587L43.4241 68.9518C43.6469 69.1255 43.9166 69.2285 44.1985 69.2477C44.4804 69.267 44.7616 69.2015 45.006 69.0597C45.2503 68.9178 45.4467 68.7062 45.5699 68.4519C45.693 68.1977 45.7373 67.9124 45.6971 67.6327L44.5116 59.3333H59.8776C61.7556 59.3311 63.5559 58.5841 64.8839 57.2562C66.2118 55.9283 66.9587 54.1279 66.9609 52.25V21.0833C66.9587 19.2054 66.2118 17.405 64.8839 16.0771C63.5559 14.7492 61.7556 14.0022 59.8776 14H20.2109C18.333 14.0022 16.5326 14.7492 15.2047 16.0771C13.8768 17.405 13.1298 19.2054 13.1276 21.0833V52.25C13.1298 54.1279 13.8768 55.9283 15.2047 57.2562C16.5326 58.5841 18.333 59.3311 20.2109 59.3333ZM15.9609 21.0833C15.9622 19.9566 16.4104 18.8763 17.2071 18.0795C18.0039 17.2828 19.0842 16.8346 20.2109 16.8333H59.8776C61.0044 16.8346 62.0847 17.2828 62.8814 18.0795C63.6782 18.8763 64.1263 19.9566 64.1276 21.0833V52.25C64.1263 53.3768 63.6782 54.4571 62.8814 55.2538C62.0847 56.0506 61.0044 56.4987 59.8776 56.5H42.8776C42.6746 56.4999 42.4739 56.5435 42.2892 56.6278C42.1045 56.712 41.94 56.835 41.807 56.9884C41.6739 57.1418 41.5754 57.3219 41.5181 57.5167C41.4608 57.7115 41.446 57.9163 41.4748 58.1173L42.3956 64.5621L32.4139 56.7982C32.1651 56.6051 31.8592 56.5002 31.5443 56.5H20.2109C19.0842 56.4987 18.0039 56.0506 17.2071 55.2538C16.4104 54.4571 15.9622 53.3768 15.9609 52.25V21.0833Z" fill="#359660"/>
<path d="M21.6276 42.3335H28.5135L31.2114 43.1043L30.2009 46.1353C30.1402 46.3167 30.1169 46.5085 30.1324 46.6991C30.1479 46.8898 30.2019 47.0753 30.2912 47.2445C30.3804 47.4137 30.503 47.563 30.6516 47.6835C30.8001 47.804 30.9716 47.8931 31.1556 47.9454L41.0722 50.7787C41.1986 50.8151 41.3294 50.8336 41.4609 50.8335C41.7581 50.8334 42.0478 50.7398 42.2889 50.566C42.5299 50.3922 42.7103 50.1469 42.8043 49.865L43.8539 46.7165L48.1556 47.9454C48.3664 48.0056 48.5882 48.016 48.8037 47.9758C49.0192 47.9357 49.2225 47.8461 49.3974 47.7141C49.5724 47.5821 49.7144 47.4112 49.8122 47.215C49.91 47.0189 49.9609 46.8027 49.9609 46.5835V23.9168C49.9609 23.6976 49.91 23.4814 49.8122 23.2852C49.7144 23.089 49.5724 22.9182 49.3974 22.7862C49.2225 22.6542 49.0192 22.5646 48.8037 22.5244C48.5882 22.4843 48.3664 22.4947 48.1556 22.5549L28.5135 28.1668H21.6276C21.2519 28.1668 20.8915 28.3161 20.6259 28.5817C20.3602 28.8474 20.2109 29.2077 20.2109 29.5835V40.9168C20.2109 41.2925 20.3602 41.6529 20.6259 41.9185C20.8915 42.1842 21.2519 42.3335 21.6276 42.3335ZM40.5465 47.6814L33.3569 45.6272L33.9379 43.8828L41.1284 45.9369L40.5465 47.6814ZM47.1276 44.7064L30.1276 39.849V30.6531L47.1276 25.7957V44.7064ZM23.0443 31.0001H27.2943V39.5001H23.0443V31.0001Z" fill="#359660"/>
<path d="M59.8776 33.8333H54.2109V36.6666H59.8776V33.8333Z" fill="#359660"/>
<path d="M59.2438 24.0663L53.5771 26.8997L54.8444 29.4342L60.5111 26.6009L59.2438 24.0663Z" fill="#359660"/>
<path d="M54.8444 41.0661L53.5771 43.6006L59.2438 46.4339L60.5111 43.8994L54.8444 41.0661Z" fill="#359660"/>
</svg>
