<svg width="108" height="108" viewBox="0 0 108 108" fill="none" xmlns="http://www.w3.org/2000/svg">
<path d="M98.2467 62.065C96.6439 59.181 93.0068 58.1422 90.1228 59.745L81.9765 63.2512L79.8877 59.0736C79.5757 58.4533 79.4121 57.7688 79.4103 57.0743V40.5729C79.3974 30.1134 71.6502 21.2759 61.2825 19.8938L67.2505 11.5983C67.7289 10.9275 67.573 9.99571 66.9021 9.51734C66.6343 9.32636 66.3109 9.22919 65.9823 9.24094H42.1104C41.2864 9.24467 40.6216 9.91588 40.6253 10.7398C40.6268 11.0477 40.7234 11.3476 40.9019 11.5983L46.8699 19.8938C36.4785 21.2485 28.6992 30.0934 28.6824 40.5729V57.3876C27.8551 58.0583 27.1002 58.8132 26.4295 59.6406L19.8349 67.8913L17.9848 65.1162C17.7642 64.7654 17.4074 64.522 17.0001 64.4448C16.5949 64.387 16.1831 64.4886 15.8513 64.7283L9.88331 69.2042C9.50341 69.4892 9.28185 69.9379 9.28651 70.4128V97.2687C9.28651 98.0926 9.95455 98.7607 10.7785 98.7607H30.1744C30.5709 98.7629 30.9521 98.6072 31.2338 98.328L35.7097 93.852C36.2088 93.3477 36.2838 92.5616 35.8888 91.9721L35.1428 90.8531L69.6526 82.9157C71.5221 82.4832 73.3311 81.8217 75.0387 80.9463L95.9267 70.189C98.8107 68.5862 99.8495 64.9491 98.2467 62.065ZM45.0049 12.2249H63.0879L57.7614 19.6849H50.3014L45.0049 12.2249ZM31.6664 40.5729C31.6664 30.6848 39.6824 22.6689 49.5704 22.6689H58.5223C68.4104 22.6689 76.4263 30.6848 76.4263 40.5729V57.0743C76.4287 58.2297 76.6993 59.3686 77.217 60.4015L79.2163 64.4448L68.9663 68.8014C68.7822 68.8797 68.5844 68.9204 68.3844 68.9208H42.1104C41.2864 68.9208 40.6184 68.2527 40.6184 67.4288C40.6184 66.6048 41.2864 65.9368 42.1104 65.9368H54.0464C59.8144 65.9368 64.4903 61.2609 64.4903 55.4928C64.4903 54.6688 63.8223 54.0008 62.9983 54.0008H61.0737C61.3542 53.3607 61.5013 52.6705 61.5063 51.9717C61.5002 49.8827 60.2068 48.0136 58.2538 47.2719L55.5384 46.2574V40.5729H56.4932C57.6139 40.5729 58.5223 41.4813 58.5223 42.602V43.5568H61.5063V42.602C61.4981 39.8367 59.2585 37.5971 56.4932 37.5889H55.5384V34.6049H52.5544V37.5889H51.5995C48.8309 37.5799 46.5791 39.8172 46.5703 42.5857C46.5636 44.6874 47.8686 46.5703 49.8389 47.3018L52.5544 48.3163V54.0008H51.5995C50.4788 54.0008 49.5704 53.0924 49.5704 51.9717V51.0168H46.5864V51.9717C46.5914 52.6705 46.7386 53.3607 47.0191 54.0008H38.1715C35.9182 54.0006 33.6942 54.5107 31.6664 55.4928V40.5729ZM58.5223 51.9717C58.5223 53.0924 57.6139 54.0008 56.4932 54.0008H55.5384V49.4353L57.2094 50.0619C57.9977 50.3684 58.5184 51.1259 58.5223 51.9717ZM52.5544 40.5729V45.1384L50.8833 44.5117C50.095 44.2053 49.5743 43.4477 49.5704 42.602C49.5704 41.4813 50.4788 40.5729 51.5995 40.5729H52.5544ZM29.5627 95.7767H12.2705V71.1588L16.3735 68.0703L32.7854 92.5987L29.5627 95.7767ZM94.4794 67.5929L73.681 78.2905C72.186 79.0542 70.6025 79.6305 68.9663 80.0063L33.3822 88.1973L21.5805 70.4874L28.757 61.4608C31.0504 58.6137 34.5158 56.9661 38.1715 56.9848H61.3571C60.6481 60.4587 57.5919 62.9535 54.0464 62.9528H42.1104C39.6383 62.9528 37.6344 64.9567 37.6344 67.4288C37.6344 69.9008 39.6383 71.9048 42.1104 71.9048H68.3546C68.9596 71.9057 69.5584 71.7837 70.1151 71.5467L91.4208 62.4455C92.8423 61.6008 94.6792 62.0686 95.5238 63.4899C96.3685 64.9112 95.9009 66.7482 94.4794 67.5929Z" fill="#359660"/>
<path d="M97.3059 11.0084C94.4102 10.5117 92.1419 8.24345 91.6452 5.34774C91.6452 4.35847 90.8432 3.5564 89.8539 3.5564C88.8646 3.5564 88.0625 4.35847 88.0625 5.34774C87.5659 8.24345 85.2976 10.5117 82.4019 11.0084C81.4126 11.0084 80.6105 11.8105 80.6105 12.7997C80.6105 13.789 81.4126 14.5911 82.4019 14.5911C85.2976 15.0877 87.5659 17.356 88.0625 20.2517C88.0625 21.241 88.8646 22.0431 89.8539 22.0431C90.8432 22.0431 91.6452 21.241 91.6452 20.2517C92.1419 17.356 94.4102 15.0877 97.3059 14.5911C98.2952 14.5911 99.0972 13.789 99.0972 12.7997C99.0972 11.8105 98.2952 11.0084 97.3059 11.0084ZM89.8539 15.3614C89.1588 14.362 88.2916 13.4948 87.2923 12.7997C88.2916 12.1047 89.1588 11.2375 89.8539 10.2381C90.5489 11.2375 91.4162 12.1047 92.4155 12.7997C91.4162 13.4948 90.5489 14.362 89.8539 15.3614Z" fill="#359660"/>
<path d="M16.6953 46.8353C13.7996 46.3387 11.5313 44.0704 11.0347 41.1746C11.0347 40.1854 10.2326 39.3833 9.24334 39.3833C8.25407 39.3833 7.452 40.1854 7.452 41.1746C6.95535 44.0704 4.68706 46.3387 1.79135 46.8353C0.802075 46.8353 0 47.6374 0 48.6266C0 49.6159 0.802075 50.418 1.79135 50.418C4.68706 50.9146 6.95535 53.1829 7.452 56.0787C7.452 57.0679 8.25407 57.87 9.24334 57.87C10.2326 57.87 11.0347 57.0679 11.0347 56.0787C11.5313 53.1829 13.7996 50.9146 16.6953 50.418C17.6846 50.418 18.4867 49.6159 18.4867 48.6266C18.4867 47.6374 17.6846 46.8353 16.6953 46.8353ZM9.24334 51.1883C8.5483 50.1889 7.68107 49.3217 6.68172 48.6266C7.68107 47.9316 8.5483 47.0644 9.24334 46.065C9.93839 47.0644 10.8056 47.9316 11.805 48.6266C10.8056 49.3217 9.93839 50.1889 9.24334 51.1883Z" fill="#359660"/>
</svg>
