<svg width="113" height="113" viewBox="0 0 113 113" fill="none" xmlns="http://www.w3.org/2000/svg">
<path d="M88.0832 15H38.2833C36.4495 15.0021 34.6914 15.7314 33.3947 17.0281C32.0981 18.3248 31.3687 20.0829 31.3666 21.9167V50.9666C30.9998 50.9666 30.6479 51.1123 30.3885 51.3718C30.129 51.6312 29.9833 51.9831 29.9833 52.3499V55.9386C28.7121 56.3177 27.4837 56.8273 26.3175 57.4594L23.7787 54.92C23.6503 54.7915 23.4978 54.6896 23.3299 54.6201C23.1621 54.5506 22.9822 54.5148 22.8005 54.5148C22.6189 54.5148 22.439 54.5506 22.2711 54.6201C22.1033 54.6896 21.9508 54.7915 21.8223 54.92L15.9534 60.7883C15.8249 60.9167 15.723 61.0692 15.6535 61.237C15.584 61.4049 15.5482 61.5848 15.5482 61.7664C15.5482 61.9481 15.584 62.128 15.6535 62.2958C15.723 62.4637 15.8249 62.6162 15.9534 62.7446L18.4928 65.2841C17.8604 66.4502 17.3505 67.6787 16.9712 68.9499H13.3833C13.0164 68.9499 12.6646 69.0956 12.4052 69.3551C12.1457 69.6145 12 69.9664 12 70.3332V78.6332C12 79.0001 12.1457 79.352 12.4052 79.6114C12.6646 79.8708 13.0164 80.0166 13.3833 80.0166H16.972C17.3514 81.2877 17.8613 82.5162 18.4937 83.6824L15.9534 86.2211C15.2422 86.9332 15.4799 87.6897 15.9534 88.1775L21.8217 94.0465C21.9501 94.1749 22.1026 94.2768 22.2704 94.3464C22.4383 94.4159 22.6182 94.4517 22.7998 94.4517C22.9815 94.4517 23.1614 94.4159 23.3292 94.3464C23.4971 94.2768 23.6496 94.1749 23.778 94.0465L26.3175 91.507C27.4837 92.1391 28.7121 92.6488 29.9833 93.0278V96.6165C29.9833 96.9834 30.129 97.3353 30.3885 97.5947C30.6479 97.8541 30.9998 97.9999 31.3666 97.9999H39.6666C40.0335 97.9999 40.3854 97.8541 40.6448 97.5947C40.9042 97.3353 41.0499 96.9834 41.0499 96.6165V93.0278C42.3211 92.6488 43.5496 92.1391 44.7158 91.507L47.2552 94.0465C47.3837 94.1749 47.5362 94.2768 47.704 94.3464C47.8719 94.4159 48.0517 94.4517 48.2334 94.4517C48.4151 94.4517 48.595 94.4159 48.7628 94.3464C48.9306 94.2768 49.0831 94.1749 49.2116 94.0465L55.0799 88.1782C55.5893 87.7264 55.7197 86.8618 55.2147 86.3576L52.5404 83.6824C53.1725 82.5162 53.6822 81.2877 54.0612 80.0166H57.6499C58.0168 80.0166 58.3687 79.8708 58.6281 79.6114C58.8875 79.352 59.0333 79.0001 59.0333 78.6332V75.8666H67.4685V73.0999H64.5666V66.7974C64.5656 65.9011 64.209 65.0417 63.5752 64.4079C62.9414 63.7741 62.0821 63.4176 61.1857 63.4166C60.3841 63.4081 59.6074 63.6947 59.0035 64.2219C58.6406 64.5773 58.1576 64.7835 57.6499 64.7999C56.6574 64.7999 55.7024 63.9317 55.2137 62.5866C55.7767 61.3118 54.8843 60.5925 54.8843 60.5925C54.9054 58.3686 56.1628 56.4999 57.6499 56.4999C58.1574 56.5163 58.6403 56.7224 59.0032 57.0776C59.6071 57.605 60.384 57.8918 61.1857 57.8833C62.0821 57.8823 62.9414 57.5257 63.5752 56.8919C64.209 56.2581 64.5656 55.3987 64.5666 54.5024V46.8166H72.2524C72.4152 46.8168 72.5713 46.8816 72.6864 46.9968C72.8016 47.1119 72.8663 47.268 72.8666 47.4308C72.8725 47.5532 72.8359 47.6739 72.7628 47.7723C71.9537 48.6408 71.4974 49.7797 71.4832 50.9666C71.4832 54.0177 74.586 56.4999 78.3999 56.4999C82.2137 56.4999 85.3165 54.0177 85.3165 50.9666C85.3022 49.7798 84.846 48.6409 84.037 47.7725C83.9639 47.674 83.9272 47.5533 83.9332 47.4308C83.9334 47.268 83.9982 47.1119 84.1133 46.9967C84.2285 46.8816 84.3846 46.8168 84.5474 46.8166H92.2332V68.9499C92.232 70.0502 91.7943 71.105 91.0163 71.883C90.2383 72.661 89.1835 73.0987 88.0832 73.0999H80.806V75.8666H88.0832C89.917 75.8645 91.6751 75.1351 92.9717 73.8384C94.2684 72.5418 94.9978 70.7837 94.9999 68.9499V21.9167C94.9978 20.0829 94.2684 18.3248 92.9717 17.0281C91.6751 15.7314 89.917 15.0021 88.0832 15V15ZM38.2833 17.7667H61.7999V24.0691C61.8009 24.9655 62.1574 25.8248 62.7913 26.4586C63.4251 27.0925 64.2844 27.449 65.1808 27.45C65.9824 27.4585 66.7591 27.1718 67.363 26.6445C67.7259 26.2892 68.2089 26.083 68.7166 26.0666C70.2163 26.0666 71.4832 27.9672 71.4832 30.2166C71.4832 32.4661 70.2163 34.3666 68.7166 34.3666C68.209 34.3502 67.726 34.144 67.3632 33.7887C66.7593 33.2614 65.9825 32.9747 65.1808 32.9833C64.2844 32.9843 63.4251 33.3408 62.7913 33.9746C62.1574 34.6085 61.8009 35.4678 61.7999 36.3642V44.0499H54.1141C53.7756 44.0499 53.5923 43.9035 53.5107 43.7041C53.4624 43.605 53.4455 43.4936 53.4622 43.3846C53.4789 43.2757 53.5283 43.1744 53.604 43.0942C54.0204 42.6747 54.3482 42.1757 54.5679 41.627C54.7877 41.0782 54.8949 40.4909 54.8833 39.9C54.8833 36.8488 51.7804 34.3666 47.9666 34.3666C44.1528 34.3666 41.0499 36.8488 41.0499 39.9C41.0499 41.0505 41.5186 42.1325 42.3295 43.0942C42.397 43.1702 42.4448 43.2617 42.4686 43.3605C42.4924 43.4593 42.4916 43.5625 42.4661 43.6609C42.3688 43.9528 42.158 44.0499 41.8194 44.0499H34.1333V21.9167C34.1346 20.8164 34.5722 19.7616 35.3502 18.9836C36.1282 18.2056 37.183 17.7679 38.2833 17.7667V17.7667ZM56.2666 77.2499H52.9985C52.687 77.2499 52.3846 77.355 52.1403 77.5483C51.896 77.7415 51.724 78.0116 51.6523 78.3147C51.2452 80.0346 50.5637 81.6778 49.634 83.1809C49.4703 83.446 49.4008 83.7586 49.4369 84.068C49.4729 84.3775 49.6124 84.6657 49.8327 84.8861L52.1455 87.1986L48.2327 91.1114L45.9201 88.7986C45.6998 88.5783 45.4116 88.4389 45.1021 88.4028C44.7927 88.3667 44.4801 88.4362 44.215 88.6C42.7117 89.5301 41.0683 90.2119 39.3481 90.6191C39.0449 90.6908 38.7747 90.8629 38.5815 91.1073C38.3882 91.3518 38.2831 91.6543 38.2833 91.9659V95.2332H32.75V91.9659C32.75 91.6544 32.6448 91.3521 32.4516 91.1078C32.2583 90.8634 31.9883 90.6915 31.6851 90.6198C29.9652 90.2125 28.322 89.5307 26.8189 88.6006C26.5539 88.4369 26.2413 88.3674 25.9318 88.4035C25.6224 88.4396 25.3341 88.579 25.1138 88.7993L22.8005 91.1121L18.8878 87.1993L21.2005 84.8867C21.4208 84.6664 21.5603 84.3782 21.5964 84.0687C21.6324 83.7593 21.563 83.4467 21.3992 83.1816C20.4691 81.6783 19.7874 80.0349 19.3801 78.3147C19.3084 78.0117 19.1366 77.7418 18.8924 77.5485C18.6483 77.3553 18.3461 77.2501 18.0348 77.2499H14.7667V71.7166H18.0348C18.3463 71.7166 18.6487 71.6114 18.893 71.4182C19.1373 71.2249 19.3092 70.9549 19.3809 70.6518C19.788 68.9318 20.4695 67.2887 21.3992 65.7855C21.563 65.5205 21.6324 65.2079 21.5964 64.8984C21.5603 64.589 21.4208 64.3007 21.2005 64.0804L18.8878 61.7671L22.8005 57.8544L25.1131 60.1671C25.3334 60.3874 25.6217 60.5269 25.9311 60.563C26.2406 60.599 26.5532 60.5296 26.8182 60.3658C28.3216 59.4357 29.9649 58.754 31.6851 58.3467C31.9881 58.275 32.2581 58.1032 32.4513 57.859C32.6445 57.6149 32.7498 57.3127 32.75 57.0014V53.7333H38.2833V57.0014C38.2833 57.3129 38.3884 57.6153 38.5817 57.8596C38.7749 58.1039 39.045 58.2758 39.3481 58.3475C41.068 58.7546 42.7111 59.4361 44.2143 60.3658C44.4794 60.5296 44.792 60.599 45.1014 60.563C45.4109 60.5269 45.6991 60.3874 45.9194 60.1671L48.232 57.8544L52.1448 61.7671L49.832 64.0797C49.6117 64.3 49.4723 64.5883 49.4362 64.8977C49.4001 65.2072 49.4696 65.5198 49.6333 65.7848C50.5634 67.2882 51.2452 68.9315 51.6525 70.6518C51.7242 70.955 51.8963 71.2251 52.1407 71.4184C52.3852 71.6117 52.6877 71.7167 52.9993 71.7166H56.2666V77.2499ZM57.6499 67.5666C58.8005 67.5666 59.8729 67.0867 60.8442 66.287C60.9335 66.2124 61.0431 66.1662 61.1588 66.1543C61.2746 66.1424 61.3912 66.1653 61.4939 66.2201C61.5965 66.2749 61.6805 66.3591 61.735 66.4619C61.7895 66.5647 61.8121 66.6814 61.7999 66.7971V73.0999H59.0333V70.3332C59.0333 69.9664 58.8875 69.6145 58.6281 69.3551C58.3687 69.0956 58.0168 68.9499 57.6499 68.9499H54.0612C53.6822 67.6788 53.1725 66.4503 52.5404 65.2841L53.1456 64.6789C54.1695 66.4644 55.8405 67.5666 57.6499 67.5666ZM61.7999 54.5024C61.7999 55.0877 61.2668 55.376 60.844 55.0123C59.8906 54.192 58.8005 53.7327 57.6499 53.7327C55.2922 53.7327 53.2751 55.5864 52.4797 58.1885L49.2116 54.9203C49.0831 54.7919 48.9306 54.69 48.7628 54.6204C48.595 54.5509 48.4151 54.5151 48.2334 54.5151C48.0517 54.5151 47.8719 54.5509 47.704 54.6204C47.5362 54.69 47.3837 54.7919 47.2552 54.9203L44.7158 57.4594C43.5496 56.8273 42.3211 56.3177 41.0499 55.9386V52.3499C41.0499 51.9831 40.9042 51.6312 40.6448 51.3718C40.3854 51.1123 40.0335 50.9666 39.6666 50.9666H34.1333V46.8166H41.8191C42.7154 46.8156 43.5748 46.4591 44.2086 45.8253C44.8424 45.1915 45.1989 44.3321 45.1999 43.4358C45.2084 42.6342 44.9218 41.8575 44.3947 41.2535C44.0393 40.8907 43.833 40.4076 43.8166 39.9C43.8166 38.4003 45.7171 37.1333 47.9666 37.1333C50.2161 37.1333 52.1166 38.4003 52.1166 39.9C52.1002 40.4075 51.894 40.8905 51.5387 41.2534C51.0114 41.8573 50.7247 42.6341 50.7333 43.4358C50.7343 44.3321 51.0908 45.1915 51.7246 45.8253C52.3584 46.4591 53.2178 46.8156 54.1141 46.8166H61.7999V54.5024ZM81.1665 47.4301C81.1581 48.2317 81.4447 49.0084 81.9718 49.6123C82.3274 49.9754 82.5337 50.4587 82.5499 50.9666C82.5499 52.4663 80.6494 53.7333 78.3999 53.7333C76.1504 53.7333 74.2499 52.4663 74.2499 50.9666C74.2663 50.4589 74.4725 49.9759 74.8279 49.613C75.3551 49.0091 75.6417 48.2324 75.6332 47.4308C75.6322 46.5345 75.2757 45.6751 74.6419 45.0413C74.0081 44.4075 73.1487 44.051 72.2524 44.0499H64.5666V36.3642C64.5661 36.2635 64.5906 36.1642 64.638 36.0753C64.6853 35.9864 64.754 35.9107 64.8379 35.8549C65.4002 35.4849 66.1268 36.3564 66.5961 36.6028C67.2498 36.948 67.9773 37.13 68.7166 37.1333C71.7677 37.1333 74.2499 34.0305 74.2499 30.2166C74.2499 26.4028 71.7677 23.3 68.7166 23.3C67.5297 23.3142 66.3908 23.7705 65.5223 24.5796C65.3801 24.6809 65.2037 24.7222 65.0314 24.6944C64.7016 24.6169 64.5666 24.408 64.5666 24.0695V17.7667H88.0832C89.1835 17.7679 90.2383 18.2056 91.0163 18.9836C91.7943 19.7616 92.2319 20.8164 92.2332 21.9167V44.0499H84.5474C83.6511 44.051 82.7917 44.4075 82.1579 45.0413C81.5241 45.6751 81.1676 46.5345 81.1665 47.4308V47.4301Z" fill="#359660"/>
<path d="M91.5367 78.6892C90.9403 78.5902 90.3295 78.6223 89.7468 78.7832C89.164 78.9442 88.6233 79.2301 88.1622 79.6211C88.1351 79.6442 88.1083 79.6676 88.0818 79.6914C87.3216 79.0099 86.3366 78.6331 85.3156 78.6333C84.2947 78.6336 83.3098 79.0108 82.5499 79.6926C81.9956 79.1957 81.3178 78.8571 80.5876 78.7124C79.8574 78.5677 79.1017 78.6223 78.3999 78.8704V71.8111C78.3999 69.4894 76.5001 67.5281 74.1788 67.5672C73.091 67.5871 72.0545 68.0329 71.2918 68.8088C70.5291 69.5847 70.1012 70.6287 70.0999 71.7167V87.2569L66.1972 85.014C65.3743 84.5409 64.404 84.3933 63.4777 84.6001C62.5513 84.8069 61.736 85.3532 61.1925 86.1314C60.6261 86.9422 60.3985 87.9421 60.5581 88.9182C60.7177 89.8943 61.2519 90.7697 62.047 91.3579L70.6792 97.7423C70.9138 97.9099 71.1949 98 71.4832 98H93.6165C93.9834 98 94.3353 97.8542 94.5947 97.5948C94.8541 97.3354 94.9999 96.9835 94.9999 96.6167V82.9314C94.9999 80.8342 93.511 79.0105 91.5367 78.6892ZM92.2332 95.2333H71.9264L63.5118 89.289C63.3811 89.1967 63.2702 89.0794 63.1854 88.9438C63.1006 88.8082 63.0436 88.657 63.0179 88.4992C62.9921 88.3413 62.998 88.1799 63.0353 88.0244C63.0727 87.8689 63.1406 87.7224 63.2351 87.5934V87.5934C63.4133 87.3503 63.6761 87.1829 63.9717 87.1242C64.2673 87.0656 64.5741 87.1199 64.8317 87.2764L70.7703 90.8862C71.0274 91.0405 71.3277 91.107 71.6259 91.0758C71.9241 91.0446 72.2041 90.9174 72.4237 90.7133C72.5662 90.5771 72.6791 90.4131 72.7553 90.2313C72.8315 90.0495 72.8694 89.854 72.8666 89.6569V71.7656C72.8618 71.4089 72.9919 71.0635 73.2308 70.7986C73.4697 70.5336 73.7998 70.3686 74.1551 70.3365C74.3443 70.3237 74.5341 70.3499 74.7127 70.4135C74.8913 70.4771 75.0549 70.5766 75.1935 70.706C75.3321 70.8354 75.4426 70.9919 75.5182 71.1657C75.5939 71.3396 75.633 71.5271 75.6332 71.7167V82.7337C75.6285 83.0945 75.7616 83.4436 76.0054 83.7095C76.2493 83.9755 76.5854 84.1384 76.9453 84.1649C77.1287 84.1745 77.3121 84.1475 77.4849 84.0854C77.6577 84.0234 77.8165 83.9276 77.9518 83.8035C78.0872 83.6795 78.1966 83.5298 78.2735 83.363C78.3504 83.1963 78.3934 83.016 78.3999 82.8325C78.425 82.1155 78.9247 81.4809 79.6383 81.4075C79.8278 81.3876 80.0193 81.4071 80.201 81.4647C80.3826 81.5223 80.5503 81.6167 80.6938 81.7421C80.8373 81.8675 80.9533 82.0211 81.0347 82.1933C81.1161 82.3656 81.1611 82.5528 81.1669 82.7432C81.1669 83.0889 81.2922 83.4229 81.5196 83.6833C81.7471 83.9436 82.0612 84.1127 82.4038 84.1591C82.5936 84.1793 82.7857 84.16 82.9677 84.1024C83.1498 84.0448 83.3179 83.9501 83.4616 83.8243C83.6053 83.6985 83.7213 83.5444 83.8025 83.3715C83.8837 83.1987 83.9282 83.0109 83.9332 82.82C83.9336 82.4746 84.0593 82.141 84.287 81.8812C84.5147 81.6214 84.8289 81.4531 85.1713 81.4075C85.3601 81.3877 85.551 81.4069 85.732 81.4639C85.9131 81.521 86.0805 81.6147 86.2238 81.7391C86.3672 81.8636 86.4834 82.0162 86.5653 82.1875C86.6472 82.3588 86.693 82.545 86.6999 82.7348C86.7256 83.4764 87.2665 84.1247 88.0075 84.1646C88.1948 84.1752 88.3823 84.1474 88.5585 84.0831C88.7348 84.0188 88.8961 83.9193 89.0326 83.7906C89.1691 83.662 89.278 83.5068 89.3526 83.3347C89.4272 83.1625 89.466 82.977 89.4665 82.7894C89.4665 82.4334 89.6075 82.0919 89.8587 81.8397C90.1098 81.5874 90.4507 81.4448 90.8066 81.4432C91.8009 81.4432 92.2332 82.188 92.2332 82.9314V95.2333Z" fill="#359660"/>
<path d="M35.5167 62.0332C33.0543 62.0332 30.6472 62.7634 28.5999 64.1314C26.5525 65.4994 24.9567 67.4438 24.0144 69.7188C23.0721 71.9937 22.8256 74.497 23.3059 76.9121C23.7863 79.3271 24.9721 81.5455 26.7132 83.2866C28.4544 85.0278 30.6728 86.2136 33.0878 86.6939C35.5029 87.1743 38.0062 86.9278 40.2811 85.9855C42.556 85.0432 44.5005 83.4474 45.8685 81.4C47.2365 79.3526 47.9667 76.9456 47.9667 74.4832C47.963 71.1824 46.6501 68.0178 44.3161 65.6838C41.982 63.3498 38.8175 62.0369 35.5167 62.0332V62.0332ZM35.5167 84.1665C33.6015 84.1665 31.7293 83.5986 30.1369 82.5346C28.5445 81.4705 27.3034 79.9582 26.5705 78.1888C25.8376 76.4194 25.6458 74.4724 26.0194 72.5941C26.3931 70.7157 27.3153 68.9903 28.6696 67.636C30.0238 66.2818 31.7492 65.3596 33.6276 64.9859C35.506 64.6123 37.4529 64.8041 39.2223 65.537C40.9917 66.2699 42.5041 67.511 43.5681 69.1034C44.6321 70.6958 45.2 72.568 45.2 74.4832C45.1971 77.0505 44.1759 79.5117 42.3606 81.3271C40.5453 83.1424 38.084 84.1636 35.5167 84.1665Z" fill="#359660"/>
<path d="M35.5167 68.95C34.4223 68.95 33.3525 69.2745 32.4425 69.8825C31.5326 70.4905 30.8233 71.3547 30.4045 72.3658C29.9857 73.3768 29.8762 74.4894 30.0897 75.5628C30.3032 76.6361 30.8302 77.6221 31.604 78.3959C32.3779 79.1698 33.3638 79.6968 34.4372 79.9103C35.5105 80.1238 36.6231 80.0142 37.6342 79.5954C38.6453 79.1766 39.5094 78.4674 40.1175 77.5574C40.7255 76.6475 41.05 75.5777 41.05 74.4833C41.0483 73.0163 40.4648 71.6098 39.4275 70.5724C38.3902 69.5351 36.9837 68.9516 35.5167 68.95ZM35.5167 77.2499C34.9695 77.2499 34.4346 77.0877 33.9796 76.7837C33.5246 76.4797 33.17 76.0476 32.9606 75.542C32.7512 75.0365 32.6964 74.4802 32.8032 73.9435C32.9099 73.4068 33.1734 72.9139 33.5603 72.527C33.9473 72.14 34.4402 71.8765 34.9769 71.7698C35.5136 71.663 36.0699 71.7178 36.5754 71.9272C37.081 72.1366 37.5131 72.4912 37.8171 72.9462C38.1211 73.4012 38.2833 73.9361 38.2833 74.4833C38.2825 75.2168 37.9907 75.92 37.472 76.4386C36.9534 76.9573 36.2502 77.2491 35.5167 77.2499V77.2499Z" fill="#359660"/>
</svg>
